# Blender 4.2.3 LTS
# www.blender.org
o Icosphere
v -0.099558 -0.413742 -0.161597
v 0.345356 -0.165081 -0.290476
v 0.265534 -0.321129 0.205175
v -0.243360 -0.251668 0.317407
v -0.478048 -0.052693 -0.108884
v -0.114199 0.000820 -0.484573
v 0.476529 0.150682 0.108884
v 0.112680 0.097169 0.484573
v -0.346875 0.263070 0.290476
v -0.267053 0.419118 -0.205175
v 0.241841 0.349657 -0.317407
v 0.098039 0.511731 0.161597
v 0.097690 -0.440548 0.025614
v 0.144608 -0.348826 -0.265720
v 0.359204 -0.294389 -0.050138
v 0.136003 -0.105151 -0.455560
v -0.125510 -0.251312 -0.379807
v -0.201429 -0.399720 0.091583
v 0.013165 -0.345283 0.307166
v -0.339373 -0.282766 -0.158984
v -0.423899 -0.187501 0.122569
v -0.347980 -0.039092 -0.348825
v 0.345279 0.099890 -0.357305
v 0.075161 0.197404 -0.471392
v 0.436307 -0.108789 0.184599
v 0.483227 -0.017066 -0.106738
v -0.076680 -0.099415 0.471392
v 0.222442 -0.140243 0.405425
v -0.484746 0.115055 0.106738
v -0.346798 -0.001901 0.357305
v -0.223961 0.238232 -0.405425
v -0.437827 0.206778 -0.184599
v 0.422380 0.285490 -0.122569
v 0.346461 0.137081 0.348825
v -0.137522 0.203140 0.455560
v -0.360724 0.392378 0.050138
v -0.014684 0.443272 -0.307166
v 0.337854 0.380755 0.158984
v 0.199909 0.497709 -0.091583
v 0.123991 0.349301 0.379807
v -0.146127 0.446815 0.265720
v -0.099209 0.538537 -0.025614
vn 0.1344 -0.9512 -0.2778
vn 0.4142 -0.5502 -0.7250
vn -0.1351 -0.9908 0.0005
vn -0.4756 -0.8679 -0.1433
vn -0.4164 -0.7523 -0.5105
vn 0.5705 -0.2007 -0.7964
vn 0.7705 -0.5983 0.2200
vn -0.1846 -0.5916 0.7848
vn -0.9748 -0.1899 0.1174
vn -0.5081 0.0517 -0.8598
vn 0.8410 -0.1321 -0.5247
vn 0.6639 -0.4783 0.5749
vn -0.4650 -0.3242 0.8238
vn -0.9856 0.1172 -0.1218
vn -0.1785 0.2359 -0.9552
vn 0.8615 0.4998 0.0895
vn 0.4314 0.3296 0.8398
vn -0.4142 0.5502 0.7250
vn -0.5067 0.8567 -0.0962
vn 0.2818 0.8256 -0.4889
vn 0.1351 0.9908 -0.0005
vn 0.0630 0.9510 -0.3028
vn -0.2371 0.8964 -0.3745
vn -0.1344 0.9512 0.2778
vn -0.4309 0.8783 0.2071
vn -0.5881 0.6976 0.4092
vn 0.0394 0.8038 0.5936
vn -0.1123 0.6082 0.7858
vn 0.0544 0.3811 0.9229
vn 0.4164 0.7523 0.5105
vn 0.5785 0.5139 0.6334
vn 0.8024 0.3842 0.4567
vn 0.4756 0.8679 0.1433
vn 0.6868 0.7258 -0.0394
vn 0.6222 0.7027 -0.3451
vn 0.1846 0.5916 -0.7848
vn -0.1150 0.5223 -0.8449
vn -0.3343 0.6625 -0.6703
vn -0.7705 0.5983 -0.2200
vn -0.9142 0.4048 -0.0198
vn -0.8519 0.4392 0.2854
vn -0.5705 0.2007 0.7964
vn -0.3987 -0.0322 0.9165
vn -0.1019 0.0315 0.9943
vn 0.5081 -0.0517 0.8598
vn 0.7190 -0.1848 0.6700
vn 0.8791 0.0028 0.4767
vn 0.9748 0.1899 -0.1174
vn 0.8943 0.1580 -0.4186
vn 0.7355 0.3928 -0.5521
vn -0.6639 0.4783 -0.5749
vn -0.7190 0.1848 -0.6700
vn -0.8791 -0.0028 -0.4767
vn -0.8410 0.1321 0.5247
vn -0.8943 -0.1580 0.4186
vn -0.7355 -0.3928 0.5521
vn 0.1785 -0.2359 0.9552
vn 0.1150 -0.5223 0.8449
vn 0.3343 -0.6625 0.6703
vn 0.9856 -0.1172 0.1218
vn 0.9142 -0.4048 0.0198
vn 0.8519 -0.4392 -0.2854
vn 0.4650 0.3242 -0.8238
vn 0.3987 0.0322 -0.9165
vn 0.1019 -0.0315 -0.9943
vn -0.4314 -0.3296 -0.8398
vn -0.5785 -0.5139 -0.6334
vn -0.8024 -0.3842 -0.4567
vn -0.8615 -0.4998 -0.0895
vn -0.6868 -0.7258 0.0394
vn -0.6222 -0.7027 0.3451
vn -0.2818 -0.8256 0.4889
vn -0.0630 -0.9510 0.3028
vn 0.2371 -0.8964 0.3745
vn -0.0544 -0.3811 -0.9229
vn 0.1123 -0.6082 -0.7858
vn -0.0394 -0.8038 -0.5936
vn 0.5067 -0.8567 0.0962
vn 0.4309 -0.8783 -0.2071
vn 0.5881 -0.6976 -0.4092
vt 0.181819 0.000000
vt 0.227273 0.078731
vt 0.136365 0.078731
vt 0.272728 0.157461
vt 0.318182 0.078731
vt 0.363637 0.157461
vt 0.909091 0.000000
vt 0.954545 0.078731
vt 0.863636 0.078731
vt 0.727273 0.000000
vt 0.772727 0.078731
vt 0.681818 0.078731
vt 0.545455 0.000000
vt 0.590909 0.078731
vt 0.500000 0.078731
vt 0.318182 0.236191
vt 0.090910 0.157461
vt 0.181819 0.157461
vt 0.136365 0.236191
vt 0.818182 0.157461
vt 0.909091 0.157461
vt 0.863636 0.236191
vt 0.636364 0.157461
vt 0.727273 0.157461
vt 0.681818 0.236191
vt 0.454546 0.157461
vt 0.545455 0.157461
vt 0.500000 0.236191
vt 0.227273 0.236191
vt 0.045455 0.236191
vt 0.772727 0.236191
vt 0.590909 0.236191
vt 0.409092 0.236191
vt 0.181819 0.314921
vt 0.272728 0.314921
vt 0.227273 0.393651
vt 0.000000 0.314921
vt 0.090910 0.314921
vt 0.045455 0.393651
vt 0.727273 0.314921
vt 0.818182 0.314921
vt 0.772727 0.393651
vt 0.545455 0.314921
vt 0.636364 0.314921
vt 0.590909 0.393651
vt 0.363637 0.314921
vt 0.454546 0.314921
vt 0.409092 0.393651
vt 0.500000 0.393651
vt 0.454546 0.472382
vt 0.681818 0.393651
vt 0.636364 0.472382
vt 0.863636 0.393651
vt 0.818182 0.472382
vt 0.909091 0.314921
vt 0.136365 0.393651
vt 0.090910 0.472382
vt 0.318182 0.393651
vt 0.272728 0.472382
vt 0.954545 0.236191
vt 1.000000 0.157461
vt 0.409092 0.078731
vt 0.363637 0.000000
s 0
f 1/1/1 14/2/1 13/3/1
f 2/4/2 14/5/2 16/6/2
f 1/7/3 13/8/3 18/9/3
f 1/10/4 18/11/4 20/12/4
f 1/13/5 20/14/5 17/15/5
f 2/4/6 16/6/6 23/16/6
f 3/17/7 15/18/7 25/19/7
f 4/20/8 19/21/8 27/22/8
f 5/23/9 21/24/9 29/25/9
f 6/26/10 22/27/10 31/28/10
f 2/4/11 23/16/11 26/29/11
f 3/17/12 25/19/12 28/30/12
f 4/20/13 27/22/13 30/31/13
f 5/23/14 29/25/14 32/32/14
f 6/26/15 31/28/15 24/33/15
f 7/34/16 33/35/16 38/36/16
f 8/37/17 34/38/17 40/39/17
f 9/40/18 35/41/18 41/42/18
f 10/43/19 36/44/19 42/45/19
f 11/46/20 37/47/20 39/48/20
f 39/48/21 42/49/21 12/50/21
f 39/48/22 37/47/22 42/49/22
f 37/47/23 10/43/23 42/49/23
f 42/45/24 41/51/24 12/52/24
f 42/45/25 36/44/25 41/51/25
f 36/44/26 9/40/26 41/51/26
f 41/42/27 40/53/27 12/54/27
f 41/42/28 35/41/28 40/53/28
f 35/41/29 8/55/29 40/53/29
f 40/39/30 38/56/30 12/57/30
f 40/39/31 34/38/31 38/56/31
f 34/38/32 7/34/32 38/56/32
f 38/36/33 39/58/33 12/59/33
f 38/36/34 33/35/34 39/58/34
f 33/35/35 11/46/35 39/58/35
f 24/33/36 37/47/36 11/46/36
f 24/33/37 31/28/37 37/47/37
f 31/28/38 10/43/38 37/47/38
f 32/32/39 36/44/39 10/43/39
f 32/32/40 29/25/40 36/44/40
f 29/25/41 9/40/41 36/44/41
f 30/31/42 35/41/42 9/40/42
f 30/31/43 27/22/43 35/41/43
f 27/22/44 8/55/44 35/41/44
f 28/30/45 34/38/45 8/37/45
f 28/30/46 25/19/46 34/38/46
f 25/19/47 7/34/47 34/38/47
f 26/29/48 33/35/48 7/34/48
f 26/29/49 23/16/49 33/35/49
f 23/16/50 11/46/50 33/35/50
f 31/28/51 32/32/51 10/43/51
f 31/28/52 22/27/52 32/32/52
f 22/27/53 5/23/53 32/32/53
f 29/25/54 30/31/54 9/40/54
f 29/25/55 21/24/55 30/31/55
f 21/24/56 4/20/56 30/31/56
f 27/22/57 28/60/57 8/55/57
f 27/22/58 19/21/58 28/60/58
f 19/21/59 3/61/59 28/60/59
f 25/19/60 26/29/60 7/34/60
f 25/19/61 15/18/61 26/29/61
f 15/18/62 2/4/62 26/29/62
f 23/16/63 24/33/63 11/46/63
f 23/16/64 16/6/64 24/33/64
f 16/6/65 6/26/65 24/33/65
f 17/15/66 22/27/66 6/26/66
f 17/15/67 20/14/67 22/27/67
f 20/14/68 5/23/68 22/27/68
f 20/12/69 21/24/69 5/23/69
f 20/12/70 18/11/70 21/24/70
f 18/11/71 4/20/71 21/24/71
f 18/9/72 19/21/72 4/20/72
f 18/9/73 13/8/73 19/21/73
f 13/8/74 3/61/74 19/21/74
f 16/6/75 17/62/75 6/26/75
f 16/6/76 14/5/76 17/62/76
f 14/5/77 1/63/77 17/62/77
f 13/3/78 15/18/78 3/17/78
f 13/3/79 14/2/79 15/18/79
f 14/2/80 2/4/80 15/18/80
o Plane
v -2.000000 -0.500000 2.000000
v 2.000000 -0.500000 2.000000
v -2.000000 -0.500000 -2.000000
v 2.000000 -0.500000 -2.000000
vn -0.0000 1.0000 -0.0000
vt 1.000000 0.000000
vt 0.000000 1.000000
vt 0.000000 0.000000
vt 1.000000 1.000000
s 0
f 44/64/81 45/65/81 43/66/81
f 44/64/81 46/67/81 45/65/81
